<svg width="540" height="540" viewBox="0 0 540 540" fill="none" xmlns="http://www.w3.org/2000/svg">
<rect width="540" height="540" rx="270" fill="#08080C"/>
<path fill-rule="evenodd" clip-rule="evenodd" d="M152.4 432C145.772 432 140.4 426.627 140.4 420V177.771C140.4 174.588 141.664 171.536 143.915 169.285L201.685 111.515C203.936 109.264 206.988 108 210.17 108H387.6C394.227 108 399.6 113.373 399.6 120V355.2C399.6 361.827 394.227 367.2 387.6 367.2H346.8C340.173 367.2 334.8 372.573 334.8 379.2V420C334.8 426.627 329.427 432 322.8 432H152.4ZM334.8 184.8C334.8 178.173 329.427 172.8 322.8 172.8H217.2C210.572 172.8 205.2 178.173 205.2 184.8V355.2C205.2 361.827 210.572 367.2 217.2 367.2H258C264.627 367.2 270 361.827 270 355.2V314.255C270 307.627 275.372 302.255 282 302.255H322.8C329.427 302.255 334.8 296.882 334.8 290.255V184.8Z" fill="white"/>
</svg>
